<?xml version="1.0" encoding="UTF-8"?>
<!DOCTYPE svg PUBLIC "-//W3C//DTD SVG 1.1//EN" "http://www.w3.org/Graphics/SVG/1.1/DTD/svg11.dtd">
<svg xmlns="http://www.w3.org/2000/svg" xml:space="preserve" width="580px" height="580px" shape-rendering="geometricPrecision" text-rendering="geometricPrecision" image-rendering="optimizeQuality" fill-rule="nonzero" clip-rule="nonzero" viewBox="0 0 5800 5800" xmlns:xlink="http://www.w3.org/1999/xlink">
	<title>calendar_31 icon</title>
	<desc>calendar_31 icon from the IconExperience.com I-Collection. Copyright by INCORS GmbH (www.incors.com).</desc>
		<path id="curve29" fill="#000000" d="M900 2300l0 3000 4000 0 0 -3000 -4000 0zm400 -1800c0,-55 45,-100 100,-100 55,0 100,45 100,100l0 200 400 0 0 -200c0,-55 45,-100 100,-100 55,0 100,45 100,100l0 200 400 0 0 -200c0,-55 45,-100 100,-100 55,0 100,45 100,100l0 200 400 0 0 -200c0,-55 45,-100 100,-100 55,0 100,45 100,100l0 200 400 0 0 -200c0,-55 45,-100 100,-100 55,0 100,45 100,100l0 200 400 0 0 -200c0,-55 45,-100 100,-100 55,0 100,45 100,100l0 200 300 0c165,0 300,135 300,300 0,1500 0,3000 0,4500l-4400 0c0,-1500 0,-3000 0,-4500 0,-165 135,-300 300,-300l300 0 0 -200zm200 400l0 127c62,35 100,101 100,173 0,110 -90,200 -200,200 -110,0 -200,-90 -200,-200 0,-72 38,-137 100,-173l0 -127 -300 0c-55,0 -100,45 -100,100l0 1100 4000 0 0 -1100c0,-55 -45,-100 -100,-100l-300 0 0 127c62,35 100,101 100,173 0,110 -90,200 -200,200 -110,0 -200,-90 -200,-200 0,-72 38,-138 100,-173l0 -127 -400 0 0 127c62,35 100,101 100,173 0,110 -90,200 -200,200 -110,0 -200,-90 -200,-200 0,-72 38,-137 100,-173l0 -127 -400 0 0 127c62,36 100,101 100,173 0,110 -90,200 -200,200 -110,0 -200,-90 -200,-200 0,-72 38,-138 100,-173l0 -127 -400 0 0 127c62,35 100,101 100,173 0,110 -90,200 -200,200 -110,0 -200,-90 -200,-200 0,-72 38,-138 100,-173l0 -127 -400 0 0 127c62,35 100,101 100,173 0,110 -90,200 -200,200 -110,0 -200,-90 -200,-200 0,-72 38,-137 100,-173l0 -127 -400 0z"/>
	<path id="curve28" fill="#000000" d="M1700 3400c0,-275 225,-500 500,-500l400 0c276,0 500,225 500,500 0,158 -75,306 -200,400 125,94 200,242 200,400 0,275 -225,500 -500,500l-400 0c-275,0 -500,-225 -500,-500l200 0c0,165 135,300 300,300l400 0c165,0 300,-135 300,-300 0,-165 -135,-300 -300,-300l-200 0 0 -200 200 0c165,0 300,-135 300,-300 0,-165 -135,-300 -300,-300l-400 0c-165,0 -300,135 -300,300l-200 0zm1800 -500l400 0 0 1800 -200 0 0 -1600 -200 0 0 -200z"/>
</svg>