<?xml version="1.0" encoding="UTF-8"?>
<!DOCTYPE svg PUBLIC "-//W3C//DTD SVG 1.1//EN" "http://www.w3.org/Graphics/SVG/1.1/DTD/svg11.dtd">
<svg xmlns="http://www.w3.org/2000/svg" xml:space="preserve" width="580px" height="580px" shape-rendering="geometricPrecision" text-rendering="geometricPrecision" image-rendering="optimizeQuality" fill-rule="nonzero" clip-rule="nonzero" viewBox="0 0 5800 5800" xmlns:xlink="http://www.w3.org/1999/xlink">
	<title>car_sedan icon</title>
	<desc>car_sedan icon from the IconExperience.com I-Collection. Copyright by INCORS GmbH (www.incors.com).</desc>
		<path id="curve28" fill="#000000" d="M2900 1500c149,0 421,0 692,13 274,13 538,41 653,98 116,58 278,268 423,516 135,233 261,504 319,712 150,106 276,236 365,378 94,151 148,316 148,483 0,203 0,456 -26,662 -31,250 -107,438 -274,438l-877 0 -378 189c-15,7 -30,11 -45,11l-2000 0c-19,0 -38,-6 -53,-15l-370 -185 -877 0c-167,0 -243,-188 -274,-438 -26,-206 -26,-459 -26,-662 0,-167 54,-332 148,-483 89,-142 215,-272 365,-378 58,-208 184,-479 319,-712 145,-248 307,-458 423,-516 115,-57 379,-85 653,-98 271,-13 543,-13 692,-13zm2400 3486l0 314c0,55 -22,105 -59,141 -36,37 -86,59 -141,59l-800 0c-110,0 -200,-90 -200,-200l0 -166 200 -100 1 266c265,0 538,0 799,0 0,0 0,-275 0,-300l100 0c32,0 69,-5 100,-14zm-3600 148l0 166c0,110 -90,200 -200,200l-800 0c-110,0 -200,-90 -200,-200l0 -314c10,2 19,5 29,7 27,5 51,7 71,7l100 0 0 300 800 0 0 -266 200 100zm-652 -2372c395,-75 1125,-112 1852,-112 727,0 1457,37 1852,112 -62,-168 -156,-362 -257,-535 -127,-218 -259,-398 -340,-438 -85,-42 -321,-65 -572,-77 -254,-12 -532,-12 -683,-12 -151,0 -429,0 -683,12 -251,12 -487,34 -572,77 -81,40 -213,220 -340,438 -101,173 -195,367 -257,535zm3807 228c-300,-93 -1126,-140 -1955,-140 -829,0 -1655,47 -1955,140 -136,93 -249,207 -327,332 -36,58 -65,117 -85,178l380 0c152,0 286,64 384,180l380 456c54,66 6,164 -77,164l-1080 0c1,13 3,25 4,38 19,150 43,262 76,262l900 0c15,0 30,4 45,11l378 189 1954 0 370 -185c15,-9 34,-15 53,-15l900 0c48,0 75,-252 80,-300l-1080 0c-83,0 -131,-98 -77,-164l381 -456c97,-116 231,-180 383,-180l380 0c-20,-61 -49,-120 -85,-178 -78,-125 -191,-239 -327,-332zm-4355 710c0,122 0,264 6,400l881 0 -244 -292c-60,-72 -137,-108 -230,-108l-413 0zm4794 400c6,-136 6,-278 6,-400l-413 0c-93,0 -170,36 -230,108l-244 292 881 0zm-3281 -400l1774 0c78,0 147,44 180,115 17,36 23,74 18,110 -5,37 -20,73 -45,103l-363 436c-20,23 -48,36 -77,36l-1200 0c-34,0 -64,-17 -82,-43l-358 -429c-25,-30 -40,-66 -45,-103 -5,-36 1,-74 18,-110 16,-35 42,-64 73,-84 32,-20 68,-31 107,-31zm0 200c-3,0 283,340 333,400l1108 0 333 -400c0,-1 -1520,0 -1774,0z"/>
</svg>