<?xml version="1.0" encoding="UTF-8"?>
<!DOCTYPE svg PUBLIC "-//W3C//DTD SVG 1.1//EN" "http://www.w3.org/Graphics/SVG/1.1/DTD/svg11.dtd">
<svg xmlns="http://www.w3.org/2000/svg" xml:space="preserve" width="580px" height="580px" shape-rendering="geometricPrecision" text-rendering="geometricPrecision" image-rendering="optimizeQuality" fill-rule="nonzero" clip-rule="nonzero" viewBox="0 0 5800 5800" xmlns:xlink="http://www.w3.org/1999/xlink">
	<title>currency_yen icon</title>
	<desc>currency_yen icon from the IconExperience.com I-Collection. Copyright by INCORS GmbH (www.incors.com).</desc>
	<path id="curve0" fill="#333333" d="M1900 3700l900 0 0 -400 -900 0 0 -200 900 0 0 -102 -942 -942c-104,-104 -158,-234 -158,-381l0 -258 200 0 0 258c0,95 32,173 99,240l901 901 901 -901c67,-67 99,-146 99,-240l0 -258 200 0 0 258c0,147 -54,277 -158,381l-942 942 0 102 900 0 0 200 -900 0 0 400 900 0 0 200 -900 0 0 800 -200 0 0 -800 -900 0 0 -200zm1000 -3400c1436,0 2600,1164 2600,2600 0,1436 -1164,2600 -2600,2600 -1436,0 -2600,-1164 -2600,-2600 0,-1436 1164,-2600 2600,-2600zm0 200c-1325,0 -2400,1075 -2400,2400 0,1325 1075,2400 2400,2400 1325,0 2400,-1075 2400,-2400 0,-1325 -1075,-2400 -2400,-2400z"/>
</svg>