<?xml version="1.0" encoding="UTF-8"?>
<!DOCTYPE svg PUBLIC "-//W3C//DTD SVG 1.1//EN" "http://www.w3.org/Graphics/SVG/1.1/DTD/svg11.dtd">
<svg xmlns="http://www.w3.org/2000/svg" xml:space="preserve" width="580px" height="580px" shape-rendering="geometricPrecision" text-rendering="geometricPrecision" image-rendering="optimizeQuality" fill-rule="nonzero" clip-rule="nonzero" viewBox="0 0 5800 5800" xmlns:xlink="http://www.w3.org/1999/xlink">
	<title>document_text icon</title>
	<desc>document_text icon from the IconExperience.com I-Collection. Copyright by INCORS GmbH (www.incors.com).</desc>
		<path id="curve28" fill="#000000" d="M1300 1500l1400 0 0 200 -1400 0 0 -200zm2250 -1200c96,0 184,39 247,103l1000 1000c64,63 103,151 103,247l0 3850 -4000 0 0 -5200 2650 0zm350 488l0 512 512 0 -512 -512zm-350 -288l-2450 0 0 4800 3600 0 0 -3650c0,-83 -67,-150 -150,-150l-850 0 0 -850c0,-82 -68,-150 -150,-150zm-2250 4000l1400 0 0 200 -1400 0 0 -200zm0 -800l2800 0 0 200 -2800 0 0 -200zm0 -600l3200 0 0 200 -3200 0 0 -200zm0 -600l3200 0 0 200 -3200 0 0 -200zm0 -1600l1200 0 0 200 -1200 0 0 -200z"/>
</svg>