<?xml version="1.0" encoding="UTF-8"?>
<!DOCTYPE svg PUBLIC "-//W3C//DTD SVG 1.1//EN" "http://www.w3.org/Graphics/SVG/1.1/DTD/svg11.dtd">
<svg xmlns="http://www.w3.org/2000/svg" xml:space="preserve" width="580px" height="580px" shape-rendering="geometricPrecision" text-rendering="geometricPrecision" image-rendering="optimizeQuality" fill-rule="nonzero" clip-rule="nonzero" viewBox="0 0 5800 5800" xmlns:xlink="http://www.w3.org/1999/xlink">
	<title>edit icon</title>
	<desc>edit icon from the IconExperience.com I-Collection. Copyright by INCORS GmbH (www.incors.com).</desc>
		<path id="curve29" fill="#000000" d="M4101 825c62,35 100,101 100,173 0,110 -89,200 -200,200 -110,0 -200,-90 -200,-200 0,-72 38,-138 100,-173l0 -125 -400 0 0 125c62,35 100,101 100,173 0,110 -89,200 -200,200 -110,0 -200,-90 -200,-200 0,-72 38,-138 100,-173l0 -125 -400 0 0 125c62,35 100,101 100,173 0,110 -89,200 -200,200 -110,0 -200,-90 -200,-200 0,-72 38,-138 100,-173l0 -125 -400 0 0 125c62,35 100,101 100,173 0,110 -89,200 -200,200 -110,0 -200,-90 -200,-200 0,-55 23,-105 59,-142 12,-12 26,-23 41,-31l0 -125 -400 0 0 125c62,35 100,101 100,173 0,110 -89,200 -200,200 -110,0 -200,-90 -200,-200 0,-72 38,-138 100,-173l0 -125 -400 0 0 125c62,35 100,101 100,173 0,110 -89,200 -200,200 -110,0 -200,-90 -200,-200 0,-72 38,-138 100,-173l0 -125 -201 0 0 4600 3600 0 0 -1830 200 -200 0 2230 -4000 0 0 -5000 401 0 0 -202c0,-55 45,-100 100,-100 55,0 100,45 100,100l0 202 400 0 0 -202c0,-55 45,-100 100,-100 55,0 100,45 100,100l0 202 400 0 0 -202c0,-55 45,-100 100,-100 55,0 100,45 100,100l0 202 400 0 0 -202c0,-55 45,-100 100,-100 55,0 100,45 100,100l0 202 400 0 0 -202c0,-55 45,-100 100,-100 55,0 100,45 100,100l0 202 400 0 0 -202c0,-55 45,-100 100,-100 55,0 100,45 100,100l0 202 399 0 0 630 -200 200 0 -630 -199 0 0 125zm-3001 675l2800 0 0 200 -2800 0 0 -200zm0 800l2230 0 -200 200 -2030 0 0 -200zm0 800l1430 0 -55 55c-38,37 -63,83 -77,131l-5 14 -1293 0 0 -200zm0 800l1068 0 -75 200 -993 0 0 -200zm2770 0l30 0 0 200 -230 0 200 -200zm-2770 800l2800 0 0 200 -2800 0 0 -200z"/>
	<path id="curve28" fill="#000000" d="M2552 4011l137 137 588 -221 1982 -1981 -505 -505 -1981 1982 -221 588zm2273 -2782l646 646c39,39 39,102 0,142l-2067 2066c-10,10 -22,18 -36,23l-1033 387c-22,8 -46,9 -70,0 -51,-19 -78,-76 -58,-128l384 -1025c5,-16 13,-31 26,-44l2066 -2067c39,-39 103,-39 142,0z"/>
</svg>