<svg x="0" y="0" width="512" height="512" version="1.1"
    xmlns="http://www.w3.org/2000/svg"
    xmlns:xlink="http://www.w3.org/1999/xlink" viewBox="0 0 512 512">
    <title>emoticon smile icon</title>
    <desc>emoticon smile icon from the IconExperience.com G-Collection. Copyright by INCORS GmbH (www.incors.com).</desc>
    <g>
        <path d="M256,16c132.55,0 240,107.45 240,240c0,132.55 -107.45,240 -240,240c-132.55,0 -240,-107.45 -240,-240c0,-132.55 107.45,-240 240,-240z" fill="#ffed58"/>
        <path d="M425.7,86.3c93.75,93.7 93.75,245.7 0,339.4c-93.7,93.75 -245.7,93.75 -339.4,0z" fill="#fbd734"/>
        <path d="M339.6,325.9c5.15,-6.35 14.35,-7.85 21.25,-3.2c7.4,4.9 9.35,14.8 4.45,22.2c-24.1,36.15 -66.25,55.1 -109.3,55.1c-43.05,0 -85.2,-18.95 -109.3,-55.1c-4.9,-7.4 -2.95,-17.3 4.45,-22.2c6.9,-4.65 16.1,-3.15 21.25,3.2c20,22 54.95,30.1 83.6,30.1c28.65,0 63.6,-8.1 83.6,-30.1z M328,160c22.1,0 40,17.9 40,40c0,22.1 -17.9,40 -40,40c-22.1,0 -40,-17.9 -40,-40c0,-22.1 17.9,-40 40,-40z M184,160c22.1,0 40,17.9 40,40c0,22.1 -17.9,40 -40,40c-22.1,0 -40,-17.9 -40,-40c0,-22.1 17.9,-40 40,-40z" fill="#445a64"/>
        <path d="M339.6,325.9c5.15,-6.35 14.35,-7.85 21.25,-3.2c7.4,4.9 9.35,14.8 4.45,22.2c-24.1,36.15 -66.25,55.1 -109.3,55.1c-38.15,0 -75.65,-14.9 -100.45,-43.55l23.85,-23.85c20.55,17 51.05,23.4 76.6,23.4c28.65,0 63.6,-8.1 83.6,-30.1z M347.15,164.85c12.4,6.8 20.85,20 20.85,35.15c0,22.1 -17.9,40 -40,40c-15.15,0 -28.35,-8.45 -35.15,-20.85z" fill="#36464e"/>
    </g>
</svg>