<svg x="0" y="0" width="512" height="512" version="1.1"
    xmlns="http://www.w3.org/2000/svg"
    xmlns:xlink="http://www.w3.org/1999/xlink" viewBox="0 0 512 512">
    <title>eye icon</title>
    <desc>eye icon from the IconExperience.com G-Collection. Copyright by INCORS GmbH (www.incors.com).</desc>
    <g>
        <path d="M512,256c-31.35,110.8 -135.15,192 -256,192c-120.85,0 -224.65,-81.2 -256,-192c31.35,-110.8 135.15,-192 256,-192c120.85,0 224.65,81.2 256,192z" fill="#f5b673"/>
        <path d="M512,256c-31.35,110.8 -135.15,192 -256,192c-120.85,0 -224.65,-81.2 -256,-192z" fill="#f5a557"/>
        <path d="M48,256c29.05,95.1 114.05,160 208,160c93.95,0 178.95,-64.9 208,-160c-29.05,-95.1 -114.05,-160 -208,-160c-93.95,0 -178.95,64.9 -208,160z" fill="#ffffff"/>
        <path d="M134.95,377.05c35.2,24.8 77.15,38.95 121.05,38.95c93.95,0 178.95,-64.9 208,-160c-15.45,-50.65 -46.85,-92.75 -86.95,-121.05z" fill="#ebedef"/>
        <path d="M256,112c79.55,0 144,64.45 144,144c0,79.55 -64.45,144 -144,144c-79.55,0 -144,-64.45 -144,-144c0,-79.55 64.45,-144 144,-144z" fill="#4ec1f5"/>
        <path d="M357.8,154.2c26.1,26.05 42.2,62.05 42.2,101.8c0,79.55 -64.45,144 -144,144c-39.75,0 -75.75,-16.1 -101.8,-42.2z" fill="#0299e3"/>
        <path d="M256,208c26.5,0 48,21.5 48,48c0,26.5 -21.5,48 -48,48c-26.5,0 -48,-21.5 -48,-48c0,-26.5 21.5,-48 48,-48z" fill="#445a64"/>
        <path d="M289.95,222.05c8.7,8.7 14.05,20.7 14.05,33.95c0,26.5 -21.5,48 -48,48c-13.25,0 -25.25,-5.35 -33.95,-14.05z" fill="#36464e"/>
    </g>
</svg>