<?xml version="1.0" encoding="UTF-8"?>
<!DOCTYPE svg PUBLIC "-//W3C//DTD SVG 1.1//EN" "http://www.w3.org/Graphics/SVG/1.1/DTD/svg11.dtd">
<svg xmlns="http://www.w3.org/2000/svg" xml:space="preserve" width="580px" height="580px" shape-rendering="geometricPrecision" text-rendering="geometricPrecision" image-rendering="optimizeQuality" fill-rule="nonzero" clip-rule="nonzero" viewBox="0 0 5800 5800" xmlns:xlink="http://www.w3.org/1999/xlink">
	<title>first_aid icon</title>
	<desc>first_aid icon from the IconExperience.com I-Collection. Copyright by INCORS GmbH (www.incors.com).</desc>
		<path id="curve28" fill="#000000" d="M2900 300c1436,0 2600,1164 2600,2600 0,1436 -1164,2600 -2600,2600 -1436,0 -2600,-1164 -2600,-2600 0,-1436 1164,-2600 2600,-2600zm400 1200l0 1000 1000 0c0,267 0,533 0,800l-1000 0 0 1000c-267,0 -533,0 -800,0l0 -1000 -1000 0c0,-267 0,-533 0,-800l1000 0 0 -1000c267,0 533,0 800,0zm-400 -1000c-1326,0 -2400,1074 -2400,2400 0,1326 1074,2400 2400,2400 1326,0 2400,-1074 2400,-2400 0,-1326 -1074,-2400 -2400,-2400z"/>
</svg>