<?xml version="1.0" encoding="UTF-8"?>
<!DOCTYPE svg PUBLIC "-//W3C//DTD SVG 1.1//EN" "http://www.w3.org/Graphics/SVG/1.1/DTD/svg11.dtd">
<svg xmlns="http://www.w3.org/2000/svg" xml:space="preserve" width="580px" height="580px" shape-rendering="geometricPrecision" text-rendering="geometricPrecision" image-rendering="optimizeQuality" fill-rule="nonzero" clip-rule="nonzero" viewBox="0 0 5800 5800" xmlns:xlink="http://www.w3.org/1999/xlink">
	<title>garbage_can icon</title>
	<desc>garbage_can icon from the IconExperience.com I-Collection. Copyright by INCORS GmbH (www.incors.com).</desc>
		<path id="curve28" fill="#000000" d="M4000 4810c0,53 50,90 100,90 59,0 96,-52 100,-107l192 -2600c4,-51 -46,-89 -92,-93 -63,-4 -104,48 -109,107l-191 2603zm892 -3110l-292 3518c-13,158 -140,282 -300,282l-2800 0c-160,0 -287,-124 -300,-282l-292 -3518 -208 0 0 -500c0,-165 135,-300 300,-300l1100 0 0 -400c0,-110 90,-200 200,-200l1200 0c110,0 200,90 200,200l0 400 1100 0c165,0 300,135 300,300l0 500 -208 0zm-3783 0l291 3502c4,54 44,98 100,98l2800 0c56,0 96,-44 100,-98l291 -3502 -3582 0zm1191 -800l1200 0c0,-133 0,-267 0,-400 0,0 -1100,0 -1200,0l0 400zm2500 200l-3800 0c-55,0 -100,45 -100,100l0 300 4000 0 0 -300c0,-55 -45,-100 -100,-100zm-2372 812c169,0 299,134 303,298l69 2595c0,161 -133,290 -292,295 -167,10 -303,-137 -308,-298l-68 -2595c0,-161 133,-290 296,-295zm2 200c-53,1 -98,42 -98,95l68 2591c1,55 44,102 101,102 53,-2 99,-42 99,-95l-68 -2591c-1,-54 -44,-102 -102,-102zm940 0c-58,0 -101,48 -102,102l-68 2591c0,53 46,94 97,95 59,-6 102,-39 103,-102l68 -2591c0,-53 -45,-94 -98,-95zm298 97l-68 2593c-5,167 -136,298 -304,298 -163,-5 -296,-134 -296,-295l69 -2595c4,-164 134,-298 299,-298l8 1c161,4 293,134 292,296zm-2160 -309c165,0 288,133 300,293l192 2600c12,169 -135,307 -300,307 -165,0 -288,-133 -300,-293l-191 -2600c-12,-161 120,-294 277,-306 8,-1 15,-1 22,-1zm0 200l-8 0c-45,3 -92,39 -92,90l192 2603c4,58 45,111 108,107 46,-4 96,-42 92,-93l-191 -2600c-4,-55 -42,-107 -101,-107zm2292 2713l192 -2620c12,-160 135,-293 300,-293 157,0 300,126 300,287 0,2 0,20 -1,20l-191 2600c-12,160 -135,293 -300,293 -157,0 -300,-126 -300,-287z"/>
</svg>