<?xml version="1.0" encoding="UTF-8"?>
<!DOCTYPE svg PUBLIC "-//W3C//DTD SVG 1.1//EN" "http://www.w3.org/Graphics/SVG/1.1/DTD/svg11.dtd">
<svg xmlns="http://www.w3.org/2000/svg" xml:space="preserve" width="580px" height="580px" shape-rendering="geometricPrecision" text-rendering="geometricPrecision" image-rendering="optimizeQuality" fill-rule="nonzero" clip-rule="nonzero" viewBox="0 0 5800 5800" xmlns:xlink="http://www.w3.org/1999/xlink">
	<title>golf_ball icon</title>
	<desc>golf_ball icon from the IconExperience.com I-Collection. Copyright by INCORS GmbH (www.incors.com).</desc>
		<path id="curve28" fill="#000000" d="M5485 2606c160,1424 -869,2713 -2293,2873 -1424,160 -2714,-869 -2874,-2293 -160,-1424 870,-2713 2293,-2873 1424,-160 2714,869 2874,2293zm-3119 -387l664 -178 112 -449 -474 -355 -476 119 -230 459 404 404zm858 -131l494 493 449 -112 119 -593 -357 -356 -592 118 -113 450zm547 686l-180 671 399 398 460 -230 119 -475 -356 -475 -442 111zm-321 812l-671 179 -110 443 474 355 476 -119 230 -459 -399 -399zm-863 126l-494 -493 -449 112 -119 593 357 356 592 -118 113 -450zm-540 -687l178 -665 -404 -403 -460 230 -119 475 356 475 449 -112zm370 -613l-179 669 491 491 669 -179 180 -669 -491 -491 -670 179zm-966 861l-340 -454 -309 206 -60 423 175 409 418 0 116 -584zm-845 -285l-103 -172c-4,117 1,233 14,348 8,71 19,142 33,212l56 -388zm-2 -390l137 228 305 -204 122 -488 -136 -228 -306 203 -122 489zm2579 2161l-203 305 228 137 488 -122 204 -305 -228 -137 -489 122zm-207 536l-158 -95 -371 53c175,33 352,47 529,42zm-196 -292l206 -308 -454 -341 -585 117 -6 411 416 182 423 -61zm1580 -2476l340 454 309 -206 60 -423 -182 -416 -410 6 -117 585zm845 285l95 159c4,-115 -1,-229 -14,-343 -7,-63 -16,-125 -28,-186l-53 370zm2 390l-137 -228 -305 204 -122 488 136 228 306 -203 122 -489zm-2579 -2161l203 -305 -228 -137 -488 122 -204 305 228 137 489 -122zm194 -544l171 103 390 -55c-185,-38 -374,-54 -561,-48zm209 300l-206 308 454 341 583 -117 0 -418 -408 -175 -423 61zm-1656 3260l-396 0 100 401c79,92 166,179 261,261l403 100 6 -389 -374 -373zm3061 -2314l389 -5 -101 -404c-79,-92 -166,-179 -261,-260l-401 -101 0 397 374 373zm-3701 121l252 -169 201 -371 -53 -53c-162,177 -297,376 -400,593zm443 -102l135 226 454 -227 226 -453 -226 -136 -379 203 -210 387zm2866 2277l-226 453 225 136 383 -208 207 -382 -135 -226 -454 227zm66 779l-157 236c206,-100 400,-231 574,-391l-44 -44 -373 199zm949 -870l-235 157 -200 372 44 44c157,-171 289,-364 391,-573zm-3358 -2966l168 -253c-213,101 -413,235 -592,401l51 51 373 -199z"/>
</svg>