<?xml version="1.0" encoding="UTF-8"?>
<!DOCTYPE svg PUBLIC "-//W3C//DTD SVG 1.1//EN" "http://www.w3.org/Graphics/SVG/1.1/DTD/svg11.dtd">
<svg xmlns="http://www.w3.org/2000/svg" xml:space="preserve" width="580px" height="580px" shape-rendering="geometricPrecision" text-rendering="geometricPrecision" image-rendering="optimizeQuality" fill-rule="nonzero" clip-rule="nonzero" viewBox="0 0 5800 5800" xmlns:xlink="http://www.w3.org/1999/xlink">
	<title>location_pin icon</title>
	<desc>location_pin icon from the IconExperience.com I-Collection. Copyright by INCORS GmbH (www.incors.com).</desc>
		<path id="curve28" fill="#000000" d="M2900 300c939,0 1700,761 1700,1700 0,340 -127,774 -317,1056l-84 124c-452,671 -813,1205 -1212,1923l-87 157 -87 -157c-399,-718 -760,-1253 -1213,-1924l-83 -123c-190,-282 -317,-716 -317,-1056 0,-939 761,-1700 1700,-1700zm0 200c-828,0 -1500,672 -1500,1500 0,301 115,695 283,944l83 123c421,625 763,1131 1134,1784 371,-652 713,-1159 1134,-1783l83 -124c168,-249 283,-643 283,-944 0,-828 -672,-1500 -1500,-1500zm0 500c552,0 1000,448 1000,1000 0,552 -448,1000 -1000,1000 -552,0 -1000,-448 -1000,-1000 0,-552 448,-1000 1000,-1000zm0 200c-442,0 -800,358 -800,800 0,442 358,800 800,800 442,0 800,-358 800,-800 0,-442 -358,-800 -800,-800z"/>
</svg>