<?xml version="1.0" encoding="UTF-8"?>
<svg version="1.1" xmlns="http://www.w3.org/2000/svg" width="48" height="48">
<path d="M0 0 C2.60561245 1.74383401 4.80989048 3.7632924 7 6 C7.94875 5.505 8.8975 5.01 9.875 4.5 C13 3 13 3 15 3 C14.91621094 3.98097656 14.83242188 4.96195312 14.74609375 5.97265625 C14.00689573 15.45331433 14.11533424 24.52727124 15 34 C12.80287871 35.23399963 10.59636099 36.43610257 8.375 37.625 C7.75753906 37.975625 7.14007813 38.32625 6.50390625 38.6875 C3.23974888 40.40547756 1.45541003 41.08986166 -2.20703125 40.3671875 C-4.60500599 39.19335371 -6.79815919 37.90452154 -9.0625 36.5 C-12.50341534 34.87936411 -13.69923151 34.90458379 -17.3984375 36.078125 C-19.72038232 37.17502609 -22.01587018 38.33017577 -24.27734375 39.546875 C-27 41 -27 41 -29 41 C-28.9278125 40.32195313 -28.855625 39.64390625 -28.78125 38.9453125 C-27.80232448 29.12886497 -27.83278025 19.7963086 -29 10 C-26.75243216 8.84917315 -24.50218252 7.70423142 -22.25 6.5625 C-21.29867188 6.07426758 -21.29867188 6.07426758 -20.328125 5.57617188 C-17.24920851 4.02067761 -14.38198193 2.7002692 -11 2 C-10.401875 1.649375 -9.80375 1.29875 -9.1875 0.9375 C-5.84772613 -0.49383166 -3.60530235 -0.48885456 0 0 Z M-9.4375 4.5625 C-11.73875241 8.15245376 -11.74059763 9.7583954 -11 14 C-8.91154011 17.8452537 -6.52912072 21.43213327 -4 25 C2.03713512 17.98637545 2.03713512 17.98637545 3.9375 9.25 C2.94001546 5.34254647 2.94001546 5.34254647 0 3 C-3.89504791 2.50426663 -6.09493717 2.41983152 -9.4375 4.5625 Z M-21.125 9.5 C-22.03507812 9.9640625 -22.94515625 10.428125 -23.8828125 10.90625 C-24.58148438 11.2671875 -25.28015625 11.628125 -26 12 C-25.91621094 13.134375 -25.83242188 14.26875 -25.74609375 15.4375 C-25.64282913 16.95830622 -25.53998716 18.47914119 -25.4375 20 C-25.38142578 20.74378906 -25.32535156 21.48757812 -25.26757812 22.25390625 C-24.93652715 27.33002118 -25.22836955 31.97011262 -26 37 C-25.21238281 36.56945312 -24.42476562 36.13890625 -23.61328125 35.6953125 C-20.02176471 33.98668569 -16.91954747 32.73027358 -13 32 C-9.6640625 33.21484375 -9.6640625 33.21484375 -6.4375 35.0625 C-1.73546864 37.79438246 -1.73546864 37.79438246 3.484375 37.08203125 C7.20774009 35.24422615 7.20774009 35.24422615 12 32 C12 23.75 12 15.5 12 7 C7.09672398 8.32226702 7.09672398 8.32226702 6.1015625 10.77734375 C5.86566406 11.84662109 5.86566406 11.84662109 5.625 12.9375 C3.93465089 19.00694065 0.52110919 23.83892214 -3 29 C-8.18437232 24.21320224 -13.08638099 17.42633052 -13.9375 10.3125 C-13.958125 9.219375 -13.97875 8.12625 -14 7 C-16.82440059 7 -18.6229276 8.21688595 -21.125 9.5 Z " fill="#000000" transform="translate(31,2)"/>
<path d="M0 0 C3.4375 0.875 3.4375 0.875 4.9375 2.625 C5.57113583 5.47636126 5.42618455 7.12080734 4.4375 9.875 C2.75 11.75 2.75 11.75 0.4375 12.875 C-2.6875 12.75 -2.6875 12.75 -5.5625 11.875 C-7.5625 8.875 -7.5625 8.875 -7.375 5.3125 C-6.23899836 0.50633922 -4.87167997 -0.17093614 0 0 Z M-3.5625 2.875 C-4.24208603 5.27219432 -4.24208603 5.27219432 -4.5625 7.875 C-3.9025 8.535 -3.2425 9.195 -2.5625 9.875 C-0.45429203 9.5564823 -0.45429203 9.5564823 1.4375 8.875 C2.1189823 6.98320797 2.1189823 6.98320797 2.4375 4.875 C1.7775 4.215 1.1175 3.555 0.4375 2.875 C-0.8825 2.875 -2.2025 2.875 -3.5625 2.875 Z " fill="#000000" transform="translate(28.5625,6.125)"/>
</svg>
