<?xml version="1.0" standalone="no"?>
<!DOCTYPE svg PUBLIC "-//W3C//DTD SVG 20010904//EN"
 "http://www.w3.org/TR/2001/REC-SVG-20010904/DTD/svg10.dtd">
<svg version="1.0" xmlns="http://www.w3.org/2000/svg"
 width="512.000000pt" height="512.000000pt" viewBox="0 0 512.000000 512.000000"
 preserveAspectRatio="xMidYMid meet">

<g transform="translate(0.000000,512.000000) scale(0.100000,-0.100000)"
fill="#000000" stroke="none">
<path d="M267 4143 c-10 -9 -9 -1753 1 -1753 4 0 15 12 24 28 9 15 46 62 82
104 l66 77 0 334 0 334 93 22 c234 55 427 209 532 426 39 82 75 195 75 238 0
16 95 17 1420 17 1325 0 1420 -1 1420 -17 0 -43 36 -156 75 -238 105 -217 298
-371 533 -426 l92 -22 0 -531 0 -531 -82 -17 c-54 -11 -119 -35 -188 -69 -92
-46 -117 -64 -201 -148 -84 -84 -102 -109 -148 -201 -34 -69 -58 -134 -69
-188 l-17 -82 -102 0 c-118 0 -109 9 -90 -105 l12 -70 530 0 530 0 0 1410 0
1410 -2291 3 c-1260 1 -2294 -1 -2297 -5z m693 -195 c-1 -42 -48 -158 -91
-224 -79 -121 -219 -223 -355 -259 -32 -8 -62 -15 -66 -15 -4 0 -8 117 -8 260
l0 260 260 0 260 0 0 -22z m3720 -238 c0 -143 -4 -260 -8 -260 -4 0 -34 7 -66
15 -136 36 -276 138 -355 259 -43 66 -90 182 -91 224 l0 22 260 0 260 0 0
-260z m0 -1950 l0 -260 -260 0 c-298 0 -275 -10 -240 101 39 128 149 268 264
338 59 35 178 80 214 81 l22 0 0 -260z"/>
<path d="M2468 3790 c-296 -35 -570 -265 -698 -585 -37 -92 -75 -235 -85 -320
l-6 -60 85 -42 85 -42 6 57 c12 116 28 199 51 270 86 262 261 449 494 528 40
14 84 19 160 19 76 0 120 -5 160 -19 199 -67 352 -209 449 -418 123 -261 127
-592 11 -862 -11 -27 -19 -50 -18 -51 24 -20 142 -84 148 -80 15 9 72 158 97
254 34 130 43 364 19 498 -82 472 -392 808 -786 853 -47 5 -89 9 -95 9 -5 -1
-40 -5 -77 -9z"/>
<path d="M1115 2729 c-228 -29 -465 -154 -607 -321 -162 -190 -239 -397 -239
-643 0 -175 30 -298 110 -453 180 -345 563 -552 949 -512 107 11 222 40 229
56 3 9 -32 152 -39 159 -2 2 -37 -6 -78 -18 -101 -27 -294 -29 -395 -3 -426
109 -683 537 -579 966 22 91 93 233 154 307 100 123 249 220 406 265 112 32
305 32 417 0 190 -54 351 -171 453 -328 21 -32 39 -60 40 -62 2 -4 139 89 142
97 4 13 -73 124 -129 185 -152 167 -371 277 -609 306 -95 11 -126 11 -225 -1z"/>
<path d="M2565 2204 c-269 -39 -442 -121 -610 -291 -169 -171 -261 -384 -272
-631 -14 -299 84 -542 302 -750 180 -174 407 -264 665 -263 193 0 348 43 510
143 97 59 227 183 287 273 196 293 226 651 79 961 -53 112 -89 165 -169 251
-140 149 -311 246 -509 288 -71 15 -233 26 -283 19z m227 -188 c381 -73 648
-395 648 -781 0 -545 -529 -922 -1049 -749 -117 39 -205 96 -306 198 -156 156
-226 327 -227 546 -1 74 5 139 15 182 42 175 138 329 272 437 184 149 420 210
647 167z"/>
<path d="M2470 1500 l0 -90 45 0 45 0 0 -310 0 -311 88 3 87 3 3 398 2 397
-135 0 -135 0 0 -90z"/>
<path d="M1060 2030 l0 -90 45 0 45 0 0 -310 0 -310 85 0 85 0 0 400 0 400
-130 0 -130 0 0 -90z"/>
</g>
</svg>
