<svg x="0" y="0" width="512" height="512" version="1.1"
    xmlns="http://www.w3.org/2000/svg"
    xmlns:xlink="http://www.w3.org/1999/xlink" viewBox="0 0 512 512">
    <title>money icon</title>
    <desc>money icon from the IconExperience.com G-Collection. Copyright by INCORS GmbH (www.incors.com).</desc>
    <g>
        <polygon points="0,96 512,96 512,416 0,416" fill="#ebedef"/>
        <polygon points="512,96 512,416 0,416" fill="#cdd7db"/>
        <path d="M0,416l0,-320l512,0l0,320z M64,112.55c0,26.45 -21.5,47.9 -48,47.9l0,191.65c26.5,0 48,21.45 48,47.95l384,0c0,-26.5 21.5,-47.95 48,-47.95l0,-191.65c-26.5,0 -48,-21.45 -48,-47.9z M88,207.8c22.1,0 40,21.45 40,47.9c0,26.45 -17.9,47.9 -40,47.9c-22.1,0 -40,-21.45 -40,-47.9c0,-26.45 17.9,-47.9 40,-47.9z M256,127.95c53,0 96,57.2 96,127.75c0,70.6 -43,127.8 -96,127.8c-53,0 -96,-57.2 -96,-127.8c0,-70.55 43,-127.75 96,-127.75z" fill="#66b96a"/>
        <path d="M512,96l0,320l-512,0l59.2,-37c3.05,6.35 4.8,13.45 4.8,21l384,0c0,-26.5 21.5,-48 48,-48l0,-192c-19,0 -35.4,-11 -43.2,-27z M424,207.8c22.1,0 40,21.45 40,47.9c0,26.45 -17.9,47.9 -40,47.9c-22.1,0 -40,-21.45 -40,-47.9c0,-26.45 17.9,-47.9 40,-47.9z M343.1,201.95c5.7,16.35 8.9,34.55 8.9,53.75c0,70.6 -43,127.8 -96,127.8c-38.3,0 -71.35,-29.9 -86.75,-73.1z" fill="#429f46"/>
        <path d="M224.45,285.65c-3.95,3.05 -7.6,5.7 -10.45,7.2c-7.2,3.75 -18.15,9.2 -27.05,19.35c13.9,33.1 39.6,55.3 69.05,55.3c29.45,0 55.15,-22.2 69.05,-55.3c-8.9,-10.15 -19.85,-15.6 -27.05,-19.35c-2.85,-1.5 -6.5,-4.15 -10.45,-7.2l0.1,-14.15c14.2,-13.45 24.35,-34.5 24.35,-55.5c0,-27.95 -14,-55.9 -56,-55.9c-42,0 -56,27.95 -56,55.9c0,21 10.15,42.05 24.35,55.5z" fill="#ebedef"/>
        <path d="M224.45,285.65c-3.95,3.05 -7.6,5.7 -10.45,7.2c-7.2,3.75 -18.15,9.2 -27.05,19.35c13.9,33.1 39.6,55.3 69.05,55.3c29.45,0 55.15,-22.2 69.05,-55.3c-8.9,-10.15 -19.85,-15.6 -27.05,-19.35c-2.85,-1.5 -6.5,-4.15 -10.45,-7.2l0.1,-14.15c12.95,-12.25 22.55,-30.85 24.1,-50l-87.35,54.5z" fill="#cdd7db"/>
    </g>
</svg>