<svg x="0" y="0" width="512" height="512" version="1.1"
    xmlns="http://www.w3.org/2000/svg"
    xmlns:xlink="http://www.w3.org/1999/xlink" viewBox="0 0 512 512">
    <title>money bills icon</title>
    <desc>money bills icon from the IconExperience.com G-Collection. Copyright by INCORS GmbH (www.incors.com).</desc>
    <g>
        <polygon points="96,64 512,64 512,320 96,320" fill="#ebedef"/>
        <polygon points="512,64 512,320 96,320" fill="#cdd7db"/>
        <path d="M304,96c39.85,0 72.15,43 72.15,96c0,53 -32.3,96 -72.15,96c-39.85,0 -72.15,-43 -72.15,-96c0,-53 32.3,-96 72.15,-96z M96,320l0,-256l416,0l0,256z M148,77.45c0,21.5 -17.45,38.95 -39,38.95l0,151.7c21.55,0 39,17.4 39,38.9l312,0c0,-21.5 17.45,-38.9 39,-38.9l0,-151.7c-21.55,0 -39,-17.45 -39,-38.95z" fill="#66b96a"/>
        <path d="M440,152c17.65,0 32,17.9 32,40c0,22.1 -14.35,40 -32,40c-17.65,0 -32,-17.9 -32,-40c0,-22.1 14.35,-40 32,-40z M512,64l0,256l-416,0l48.25,-29.7c2.4,5.1 3.75,10.75 3.75,16.7l312,0c0,-21.5 17.45,-38.9 39,-38.9l0,-151.7c-15.7,0 -29.2,-9.3 -35.4,-22.6z" fill="#429f46"/>
        <path d="M352.9,231.35c-9.65,24.25 -27.95,40.65 -48.9,40.65c-20.95,0 -39.25,-16.4 -48.9,-40.65c6.05,-5.7 12.7,-9.05 17.35,-11.45c2.15,-1.1 4.85,-3.1 7.85,-5.4l-0.05,-10.65c-10.7,-10.1 -18.35,-25.9 -18.35,-41.7c0,-21 10.55,-42 42.1,-42c31.55,0 42.1,21 42.1,42c0,15.8 -7.65,31.6 -18.35,41.7l-0.05,10.65c3,2.3 5.7,4.3 7.85,5.4c4.65,2.4 11.3,5.75 17.35,11.45z" fill="#ebedef"/>
        <polygon points="48,128 464,128 464,384 48,384" fill="#ebedef"/>
        <polygon points="464,128 464,384 48,384" fill="#cdd7db"/>
        <path d="M48,384l0,-256l416,0l0,256z M100,141.45c0,21.5 -17.45,38.95 -39,38.95l0,151.7c21.55,0 39,17.4 39,38.9l312,0c0,-21.5 17.45,-38.9 39,-38.9l0,-151.7c-21.55,0 -39,-17.45 -39,-38.95z M256,160c39.85,0 72.15,43 72.15,96c0,53 -32.3,96 -72.15,96c-39.85,0 -72.15,-43 -72.15,-96c0,-53 32.3,-96 72.15,-96z" fill="#66b96a"/>
        <path d="M392,216c17.65,0 32,17.9 32,40c0,22.1 -14.35,40 -32,40c-17.65,0 -32,-17.9 -32,-40c0,-22.1 14.35,-40 32,-40z M464,128l0,256l-416,0l48.25,-29.7c2.4,5.1 3.75,10.75 3.75,16.7l312,0c0,-21.5 17.45,-38.9 39,-38.9l0,-151.7c-15.7,0 -29.2,-9.3 -35.4,-22.6z" fill="#429f46"/>
        <path d="M304.9,295.35c-9.65,24.25 -27.95,40.65 -48.9,40.65c-20.95,0 -39.25,-16.4 -48.9,-40.65c6.05,-5.7 12.7,-9.05 17.35,-11.45c2.15,-1.1 4.85,-3.1 7.85,-5.4l-0.05,-10.65c-10.7,-10.1 -18.35,-25.9 -18.35,-41.7c0,-21 10.55,-42 42.1,-42c31.55,0 42.1,21 42.1,42c0,15.8 -7.65,31.6 -18.35,41.7l-0.05,10.65c3,2.3 5.7,4.3 7.85,5.4c4.65,2.4 11.3,5.75 17.35,11.45z" fill="#ebedef"/>
        <polygon points="0,192 416,192 416,448 0,448" fill="#ebedef"/>
        <polygon points="416,192 416,448 0,448" fill="#cdd7db"/>
        <path d="M208,224c39.85,0 72.15,43 72.15,96c0,53 -32.3,96 -72.15,96c-39.85,0 -72.15,-43 -72.15,-96c0,-53 32.3,-96 72.15,-96z M0,448l0,-256l416,0l0,256z M52,205.45c0,21.5 -17.45,38.95 -39,38.95l0,151.7c21.55,0 39,17.4 39,38.9l312,0c0,-21.5 17.45,-38.9 39,-38.9l0,-151.7c-21.55,0 -39,-17.45 -39,-38.95z M72,280c17.65,0 32,17.9 32,40c0,22.1 -14.35,40 -32,40c-17.65,0 -32,-17.9 -32,-40c0,-22.1 14.35,-40 32,-40z" fill="#66b96a"/>
        <path d="M344,280c17.65,0 32,17.9 32,40c0,22.1 -14.35,40 -32,40c-17.65,0 -32,-17.9 -32,-40c0,-22.1 14.35,-40 32,-40z M273.5,279.7c4.25,12.25 6.65,25.9 6.65,40.3c0,53 -32.3,96 -72.15,96c-29,0 -54.05,-22.8 -65.5,-55.7z M416,192l0,256l-416,0l48.25,-29.7c2.4,5.1 3.75,10.75 3.75,16.7l312,0c0,-21.5 17.45,-38.9 39,-38.9l0,-151.7c-15.7,0 -29.2,-9.3 -35.4,-22.6z" fill="#429f46"/>
        <path d="M256.9,359.35c-9.65,24.25 -27.95,40.65 -48.9,40.65c-20.95,0 -39.25,-16.4 -48.9,-40.65c6.05,-5.7 12.7,-9.05 17.35,-11.45c2.15,-1.1 4.85,-3.1 7.85,-5.4l-0.05,-10.65c-10.7,-10.1 -18.35,-25.9 -18.35,-41.7c0,-21 10.55,-42 42.1,-42c31.55,0 42.1,21 42.1,42c0,15.8 -7.65,31.6 -18.35,41.7l-0.05,10.65c3,2.3 5.7,4.3 7.85,5.4c4.65,2.4 11.3,5.75 17.35,11.45z" fill="#ebedef"/>
        <path d="M256.9,359.35c-9.65,24.25 -27.95,40.65 -48.9,40.65c-20.95,0 -39.25,-16.4 -48.9,-40.65c6.05,-5.7 12.7,-9.05 17.35,-11.45c2.15,-1.1 4.85,-3.1 7.85,-5.4l-0.05,-7.9l65.65,-40.4c-1.15,14.45 -8.4,28.45 -18.15,37.65l-0.05,10.65c3,2.3 5.7,4.3 7.85,5.4c4.65,2.4 11.3,5.75 17.35,11.45z" fill="#cdd7db"/>
    </g>
</svg>