<?xml version="1.0" standalone="no"?>
<!DOCTYPE svg PUBLIC "-//W3C//DTD SVG 20010904//EN"
 "http://www.w3.org/TR/2001/REC-SVG-20010904/DTD/svg10.dtd">
<svg version="1.0" xmlns="http://www.w3.org/2000/svg"
 width="512.000000pt" height="512.000000pt" viewBox="0 0 512.000000 512.000000"
 preserveAspectRatio="xMidYMid meet">

<g transform="translate(0.000000,512.000000) scale(0.100000,-0.100000)"
fill="#000000" stroke="none">
<path d="M645 4475 l-25 -24 0 -1715 0 -1714 31 -26 c17 -14 39 -26 50 -26 28
0 75 26 83 45 3 9 6 786 6 1726 l0 1710 -25 24 c-33 34 -87 34 -120 0z"/>
<path d="M970 2752 l0 -1749 -30 -60 c-48 -97 -128 -145 -237 -145 -77 -1
-136 26 -192 87 -76 83 -71 -44 -71 1762 0 1137 -3 1620 -11 1635 -6 11 -26
26 -44 34 -39 16 -69 8 -100 -26 -20 -22 -20 -38 -23 -1609 -2 -1048 1 -1613
8 -1666 20 -159 114 -290 257 -358 l68 -32 1930 -3 c1437 -2 1944 0 1985 8
174 37 313 190 340 375 6 45 10 686 10 1783 l0 1712 -1945 0 -1945 0 0 -1748z
m3710 -70 c0 -1844 5 -1714 -71 -1797 -23 -24 -62 -54 -87 -67 l-47 -23 -1702
-3 c-937 -1 -1703 1 -1703 4 0 4 13 34 30 68 16 33 34 85 40 115 6 35 10 640
10 1702 l0 1649 1765 0 1765 0 0 -1648z"/>
<path d="M1510 3885 l0 -85 1410 0 1410 0 0 85 0 85 -1410 0 -1410 0 0 -85z"/>
<path d="M1510 3355 l0 -85 1410 0 1410 0 0 85 0 85 -1410 0 -1410 0 0 -85z"/>
<path d="M1500 2825 l0 -85 530 0 530 0 0 85 0 85 -530 0 -530 0 0 -85z"/>
<path d="M2920 2295 l0 -615 705 0 705 0 0 615 0 615 -705 0 -705 0 0 -615z
m1230 0 l0 -445 -527 2 -528 3 -3 443 -2 442 530 0 530 0 0 -445z"/>
<path d="M1510 2295 l0 -85 525 0 525 0 0 85 0 85 -525 0 -525 0 0 -85z"/>
<path d="M1510 1765 l0 -85 525 0 525 0 0 85 0 85 -525 0 -525 0 0 -85z"/>
<path d="M1510 1235 l0 -85 1410 0 1410 0 0 85 0 85 -1410 0 -1410 0 0 -85z"/>
</g>
</svg>
