<svg x="0" y="0" width="512" height="512" version="1.1"
    xmlns="http://www.w3.org/2000/svg"
    xmlns:xlink="http://www.w3.org/1999/xlink" viewBox="0 0 512 512">
    <title>phone receiver2 icon</title>
    <desc>phone receiver2 icon from the IconExperience.com G-Collection. Copyright by INCORS GmbH (www.incors.com).</desc>
    <g>
        <path d="M215.8,148.2l-22.3,-128.55c-0.7,-3.8 -3.45,-6.65 -7.25,-7.5l-54.55,-11.5c-10.45,-2.2 -20.55,1.3 -27.35,9.45l-36.05,43.2c-14.55,86 7.65,189.3 68.35,282.05c60.5,92.45 146.15,154.55 231,176.65l55.3,-14.8c10.35,-2.8 17.8,-10.55 20,-20.95l11.6,-53.95c0.85,-3.8 -0.7,-7.45 -3.9,-9.6l-109.35,-72.65c-2.15,-1.45 -4.5,-1.9 -7.05,-1.4l-76.15,15.5c-6.6,1.35 -12.95,-0.7 -17.5,-5.65c-14.8,-16.05 -28.75,-33.9 -41.45,-53.3c-12.7,-19.45 -23.45,-39.35 -32.2,-59.3c-2.7,-6.15 -2,-12.7 1.95,-18.15l45.3,-62.6c1.5,-2.05 2.05,-4.4 1.6,-6.95z" fill="#0299e3"/>
        <path d="M115.95,1.75c-4.4,1.65 -8.4,4.45 -11.6,8.35l-36.05,43.2c-14.55,86 7.65,189.3 68.35,282.05c60.5,92.45 146.15,154.55 231,176.65l55.3,-14.8c4.9,-1.35 9.15,-3.75 12.5,-7.05l-134.55,-89.45c-40.95,-27.2 -75,-64.65 -101.75,-105.5c-26.75,-40.9 -47.35,-87 -55.7,-135.15z" fill="#28b5f5"/>
    </g>
</svg>