<svg x="0" y="0" width="512" height="512" version="1.1"
    xmlns="http://www.w3.org/2000/svg"
    xmlns:xlink="http://www.w3.org/1999/xlink" viewBox="0 0 512 512">
    <title>pin2 icon</title>
    <desc>pin2 icon from the IconExperience.com G-Collection. Copyright by INCORS GmbH (www.incors.com).</desc>
    <g>
        <path d="M222.05,256l33.95,33.95l-147.1,147.05c-33.9,33.95 -79.15,56.6 -96.15,62.25c5.65,-17 28.3,-62.25 62.25,-96.15z" fill="#788f9b"/>
        <path d="M256,289.95l-50.9,50.9l-96.2,96.15c-33.9,33.95 -79.15,56.6 -96.15,62.25l175.35,-175.35l-16.95,-17l50.9,-50.9z" fill="#546e7a"/>
        <path d="M340.85,1.45l169.7,169.7l-22.6,22.6c-12.5,12.5 -32.8,12.5 -45.25,0l-4.8,-4.75l-105.1,122.55c28.2,37.55 25.2,91.35 -8.9,125.45l-248.9,-248.9c34.1,-34.1 87.9,-37.1 125.45,-8.9l122.55,-105.1l-4.75,-4.8c-12.5,-12.45 -12.5,-32.75 0,-45.25z" fill="#d74214"/>
        <path d="M425.7,86.3l84.85,84.85l-22.6,22.6c-12.5,12.5 -32.8,12.5 -45.25,0l-4.8,-4.75l-105.1,122.55c28.2,37.55 25.2,91.35 -8.9,125.45l-124.45,-124.45l36.5,-36.5z" fill="#bd360c"/>
    </g>
</svg>