<?xml version="1.0" standalone="no"?>
<!DOCTYPE svg PUBLIC "-//W3C//DTD SVG 20010904//EN"
 "http://www.w3.org/TR/2001/REC-SVG-20010904/DTD/svg10.dtd">
<svg version="1.0" xmlns="http://www.w3.org/2000/svg"
 width="512.000000pt" height="512.000000pt" viewBox="0 0 512.000000 512.000000"
 preserveAspectRatio="xMidYMid meet">

<g transform="translate(0.000000,512.000000) scale(0.100000,-0.100000)"
fill="#000000" stroke="none">
<path d="M2320 4494 c-951 -85 -1732 -599 -1978 -1304 -102 -292 -99 -638 9
-931 194 -529 716 -972 1378 -1168 249 -74 472 -107 815 -121 330 -12 429 -39
514 -135 72 -82 79 -186 27 -404 -15 -62 -25 -114 -23 -117 8 -7 208 65 305
111 410 193 693 562 748 976 5 43 11 51 68 95 184 145 316 285 430 459 111
170 189 363 222 556 19 109 22 330 5 434 -107 683 -709 1249 -1556 1466 -245
62 -391 80 -674 84 -135 1 -265 1 -290 -1z m387 -174 c385 -23 700 -103 1008
-254 401 -197 678 -460 840 -799 281 -584 67 -1249 -537 -1674 l-78 -55 0 -66
c-1 -237 -150 -522 -371 -710 -80 -68 -240 -172 -265 -172 -9 0 -11 10 -7 33
8 50 -15 175 -42 235 -30 66 -110 150 -174 186 -129 70 -256 94 -566 106 -257
11 -378 25 -563 66 -266 59 -572 185 -782 324 -332 219 -565 508 -669 827
-306 939 599 1875 1889 1952 69 5 132 9 140 9 8 1 88 -3 177 -8z"/>
</g>
</svg>
