<svg x="0" y="0" width="512" height="512" version="1.1"
    xmlns="http://www.w3.org/2000/svg"
    xmlns:xlink="http://www.w3.org/1999/xlink" viewBox="0 0 512 512">
    <title>table tennis racket icon</title>
    <desc>table tennis racket icon from the IconExperience.com G-Collection. Copyright by INCORS GmbH (www.incors.com).</desc>
    <g>
        <path d="M446.6,65.4c76.05,76.05 60.2,193.3 -19.65,273.2c-52.15,52.15 -119.15,62 -178.7,38.35c-28.1,-11.15 -58.55,-4.25 -79.1,17.9c-24.8,26.8 -49.45,56.4 -73.6,93.05c-5.1,7.75 -15.15,10.35 -23.3,6c-23.7,-12.4 -41.75,-30.45 -54.15,-54.15c-4.35,-8.15 -1.75,-18.2 6,-23.3c36.65,-24.15 66.25,-48.8 93.05,-73.6c22.15,-20.55 29.05,-51 17.9,-79.1c-23.65,-59.55 -13.8,-126.55 38.35,-178.7c79.9,-79.85 197.15,-95.7 273.2,-19.65z" fill="#ffb54c"/>
        <path d="M446.6,65.4c76.05,76.05 60.2,193.3 -19.65,273.2c-52.15,52.15 -119.15,62 -178.7,38.35c-28.1,-11.15 -58.55,-4.25 -79.1,17.9c-24.8,26.8 -49.45,56.4 -73.6,93.05c-5.1,7.75 -15.15,10.35 -23.3,6c-11.85,-6.2 -22.3,-13.8 -31.3,-22.85z" fill="#ffa526"/>
        <path d="M446.6,65.4c76.05,76.05 60.2,193.3 -19.65,273.2c-41.1,41.1 -91.45,55.95 -140.1,48.8l-162.25,-162.25c-7.15,-48.65 7.7,-99 48.8,-140.1c79.9,-79.85 197.15,-95.7 273.2,-19.65z" fill="#e54a18"/>
        <path d="M446.6,65.4c76.05,76.05 60.2,193.3 -19.65,273.2c-41.1,41.1 -91.45,55.95 -140.1,48.8l-81.1,-81.15z" fill="#d74214"/>
        <path d="M167.7,293.6l15.85,-9.55l44.4,44.4l-9.55,15.85c-41.4,41.4 -82.8,82.8 -122.85,143.6c-5.1,7.75 -15.15,10.35 -23.3,6c-23.7,-12.4 -41.75,-30.45 -54.15,-54.15c-4.35,-8.15 -1.75,-18.2 6,-23.3c60.8,-40.05 102.2,-81.45 143.6,-122.85z" fill="#f98b00"/>
        <path d="M205.75,306.25l22.2,22.2l-9.55,15.85c-41.4,41.4 -82.8,82.8 -122.85,143.6c-5.1,7.75 -15.15,10.35 -23.3,6c-11.85,-6.2 -22.3,-13.8 -31.3,-22.85z" fill="#f37c00"/>
    </g>
</svg>