<?xml version="1.0" standalone="no"?>
<!DOCTYPE svg PUBLIC "-//W3C//DTD SVG 20010904//EN"
 "http://www.w3.org/TR/2001/REC-SVG-20010904/DTD/svg10.dtd">
<svg version="1.0" xmlns="http://www.w3.org/2000/svg"
 width="512.000000pt" height="512.000000pt" viewBox="0 0 512.000000 512.000000"
 preserveAspectRatio="xMidYMid meet">

<g transform="translate(0.000000,512.000000) scale(0.100000,-0.100000)"
fill="#000000" stroke="none">
<path d="M2163 4856 c-257 -49 -487 -189 -613 -376 -49 -73 -68 -110 -96 -193
-42 -123 -47 -206 -30 -467 19 -288 20 -323 11 -430 -13 -154 33 -281 139
-385 53 -52 66 -72 90 -140 56 -162 221 -472 266 -500 22 -14 3 -204 -31 -302
-41 -121 -103 -162 -375 -252 -329 -108 -430 -157 -524 -251 -165 -165 -275
-426 -287 -680 -5 -104 -3 -120 17 -168 62 -143 287 -262 635 -336 683 -143
1707 -143 2390 0 348 74 573 193 635 336 20 48 22 64 17 168 -15 320 -190 651
-408 773 -79 44 -210 96 -394 154 -155 50 -268 100 -315 139 -59 50 -94 153
-106 316 l-7 86 37 45 c74 90 182 301 242 472 24 69 35 87 84 132 106 97 158
238 145 393 -9 107 -8 132 11 430 18 273 16 322 -20 436 -62 193 -215 368
-401 458 -49 24 -115 50 -145 57 -70 17 -211 15 -270 -3 -44 -14 -46 -14 -125
24 -44 20 -107 45 -140 54 -82 22 -335 28 -432 10z m297 -166 c107 -14 165
-33 242 -80 37 -22 77 -41 90 -42 13 0 56 9 97 22 123 38 246 16 370 -66 113
-76 209 -198 250 -321 26 -76 27 -147 6 -448 -10 -138 -13 -265 -9 -341 8
-153 -6 -204 -75 -273 -26 -25 -58 -53 -71 -62 -19 -12 -35 -46 -65 -135 -49
-148 -148 -348 -215 -434 -92 -118 -85 -95 -72 -249 14 -162 30 -232 77 -328
65 -133 161 -192 491 -302 307 -102 376 -138 460 -239 105 -128 173 -297 195
-485 12 -98 11 -107 -7 -138 -42 -72 -179 -139 -399 -194 -344 -87 -758 -129
-1265 -129 -507 0 -921 42 -1265 129 -220 55 -357 122 -399 194 -18 31 -19 40
-7 138 22 188 90 357 195 485 84 101 157 140 458 238 311 102 422 168 486 287
53 100 92 285 92 439 0 47 -5 57 -51 115 -96 121 -194 313 -255 503 -20 61
-36 94 -52 105 -58 40 -103 86 -124 129 -22 44 -23 59 -23 242 0 107 -7 291
-15 408 -17 254 -10 315 49 437 68 141 164 236 316 310 162 79 325 107 495 85z"/>
</g>
</svg>
