<?xml version="1.0" standalone="no"?>
<!DOCTYPE svg PUBLIC "-//W3C//DTD SVG 20010904//EN"
 "http://www.w3.org/TR/2001/REC-SVG-20010904/DTD/svg10.dtd">
<svg version="1.0" xmlns="http://www.w3.org/2000/svg"
 width="512.000000pt" height="512.000000pt" viewBox="0 0 512.000000 512.000000"
 preserveAspectRatio="xMidYMid meet">

<g transform="translate(0.000000,512.000000) scale(0.100000,-0.100000)"
fill="#000000" stroke="none">
<path d="M2444 4670 c-79 -14 -173 -52 -237 -94 -163 -108 -281 -325 -294
-541 l-6 -91 29 -19 c16 -10 53 -41 81 -68 l53 -49 10 26 c5 15 10 75 10 134
0 120 14 186 60 278 80 164 226 254 410 254 184 0 330 -90 410 -254 46 -94 60
-158 60 -284 0 -62 5 -122 11 -133 10 -19 13 -18 62 24 29 24 65 52 81 62 l29
19 -6 96 c-17 289 -195 537 -442 616 -90 28 -236 39 -321 24z"/>
<path d="M3505 3860 c-124 -25 -270 -109 -337 -194 -55 -69 -98 -163 -105
-228 l-5 -53 85 -56 85 -55 4 81 c3 58 11 95 28 130 90 186 371 269 556 165
61 -34 72 -36 134 -14 50 18 94 13 152 -17 61 -31 115 -86 144 -145 l27 -55
-9 -177 c-5 -97 -7 -208 -6 -246 4 -84 -8 -114 -58 -155 -29 -23 -42 -44 -54
-83 -22 -78 -92 -215 -138 -276 l-41 -53 6 -92 c7 -112 36 -209 77 -259 44
-53 114 -89 283 -146 81 -28 166 -62 188 -76 78 -52 148 -194 152 -310 2 -58
1 -60 -32 -83 -101 -69 -397 -120 -804 -138 l-147 -7 50 -55 c27 -30 57 -68
67 -85 l18 -30 135 6 c474 24 786 114 866 251 24 41 27 57 26 123 -4 208 -123
422 -278 499 -32 17 -111 47 -174 68 -212 70 -236 90 -247 210 -5 61 -4 66 29
117 45 68 74 125 105 207 14 38 41 83 64 108 72 78 81 112 87 333 12 388 12
386 -32 476 -50 101 -136 189 -233 236 -64 31 -74 33 -178 34 -76 0 -121 5
-146 16 -82 36 -241 48 -344 28z"/>
<path d="M1041 3844 c-167 -45 -309 -198 -357 -385 -13 -49 -15 -89 -11 -170
18 -310 -48 -708 -137 -834 -35 -48 -35 -49 -18 -78 57 -99 177 -176 312 -199
68 -12 69 -13 45 -26 -14 -7 -80 -31 -148 -53 -162 -54 -247 -100 -303 -163
-92 -106 -153 -267 -155 -409 -1 -66 3 -83 26 -123 80 -136 389 -225 871 -250
l129 -6 18 31 c10 17 42 57 71 89 l53 57 -151 3 c-348 6 -705 66 -807 135 -33
23 -34 25 -32 83 5 120 76 261 159 313 24 16 108 50 187 76 274 90 341 154
363 344 l6 58 -148 6 c-154 5 -232 21 -273 55 l-21 17 30 76 c64 165 100 429
100 736 0 158 3 189 20 235 70 186 251 266 435 193 l65 -26 64 25 c87 35 189
36 261 2 108 -50 187 -176 193 -307 l4 -77 72 33 c39 17 79 35 89 38 16 6 17
14 11 54 -31 224 -189 405 -393 453 -64 15 -198 8 -256 -13 -36 -13 -47 -13
-110 4 -84 22 -190 23 -264 3z"/>
<path d="M2448 3300 c-87 -16 -163 -41 -218 -74 -30 -17 -86 -42 -125 -55
-170 -55 -278 -175 -321 -358 -20 -81 -22 -268 -4 -363 6 -36 15 -121 19 -190
9 -141 29 -196 95 -259 28 -28 42 -55 71 -146 20 -66 49 -134 70 -165 30 -44
36 -63 41 -130 10 -121 2 -145 -56 -175 -26 -13 -109 -45 -184 -69 -75 -25
-168 -62 -206 -82 -157 -82 -272 -274 -300 -500 -17 -134 12 -203 115 -274
239 -165 1027 -241 1659 -160 354 45 552 115 644 226 44 53 55 107 42 208 -28
225 -143 418 -298 499 -38 20 -132 58 -208 83 -179 60 -232 86 -240 120 -4 14
-4 66 0 115 6 78 10 94 41 140 21 30 50 98 70 164 29 91 43 118 71 146 37 36
76 103 88 153 4 17 7 62 7 100 0 39 7 121 16 181 62 428 -134 745 -522 845
-90 23 -290 34 -367 20z m367 -203 c179 -58 294 -178 339 -353 20 -79 21 -229
1 -331 -10 -49 -13 -100 -9 -138 7 -76 -2 -98 -64 -160 -46 -46 -52 -58 -76
-147 -28 -106 -60 -177 -102 -228 -25 -30 -28 -42 -36 -154 -18 -265 26 -324
313 -421 208 -70 257 -94 307 -150 55 -62 98 -152 117 -240 28 -133 20 -155
-68 -195 -188 -85 -547 -134 -977 -134 -430 0 -789 49 -977 134 -88 40 -96 62
-68 195 19 88 62 178 117 240 50 57 101 82 306 150 163 54 254 107 284 166 28
56 38 142 29 265 -7 101 -10 115 -35 144 -42 51 -72 118 -102 228 -26 96 -30
104 -75 142 -56 47 -74 96 -64 171 4 31 1 76 -11 131 -13 57 -18 125 -18 218
0 115 3 143 22 190 42 106 113 167 230 194 36 8 75 25 94 41 67 57 149 75 313
71 106 -3 145 -8 210 -29z"/>
</g>
</svg>
