<?xml version="1.0" encoding="utf-8"?>
<!DOCTYPE svg PUBLIC "-//W3C//DTD SVG 1.0//EN" "http://www.w3.org/TR/2001/REC-SVG-20010904/DTD/svg10.dtd">
<svg version="1.0" xmlns="http://www.w3.org/2000/svg" width="256px" height="256px" viewBox="0 0 256 256" preserveAspectRatio="xMidYMid meet">
 <g fill="#000000">
  <path d="M23 210.3 l-0.1 -31.8 -2.3 5.5 c-1.7 4.3 -2.7 5.6 -4.7 5.8 -2.1 0.2 -2.7 -0.5 -4.5 -5.2 -1.8 -4.6 -1.9 -5.6 -0.7 -6 1 -0.4 1.9 0.6 3 3.4 0.9 2.2 1.9 4 2.2 4 0.3 0 1.6 -2.7 2.8 -6 1.7 -4.9 1.9 -6 0.7 -6 -2 0 -1.8 -0.8 1.1 -4.6 2.3 -3 2.5 -4.1 2.5 -13.3 0 -6.2 -0.4 -10.1 -1 -10.1 -0.6 0 -4.2 1.6 -8.1 3.6 -3.9 1.9 -7.2 3.4 -7.4 3.2 -0.1 -0.2 -0.9 -1.7 -1.8 -3.3 l-1.5 -3.1 62.4 -31.2 62.4 -31.2 62.4 31.2 62.4 31.2 -1.5 3.1 c-0.9 1.6 -1.7 3.1 -1.8 3.3 -0.2 0.2 -3.5 -1.3 -7.4 -3.2 -3.9 -2 -7.5 -3.6 -8.1 -3.6 -0.7 0 -1 15.9 -1 48 l0 48 -105 0 -105 0 0 -31.7z m61 -2.8 l0 -26.5 44 0 44 0 0 26.5 0 26.5 27 0 27 0 0 -46.3 0 -46.2 -49 -24.5 -49 -24.5 -49 24.5 -49 24.5 0 46.2 0 46.3 27 0 27 0 0 -26.5z m40 4 l0 -22.5 -16 0 -16 0 0 22.5 0 22.5 16 0 16 0 0 -22.5z m40 0 l0 -22.5 -15.9 0 -15.9 0 -0.3 3.3 c-0.2 1.7 -0.3 11.9 -0.1 22.5 l0.3 19.2 15.9 0 16 0 0 -22.5z"/>
  <path d="M7.4 174.9 c-0.7 -1.2 1.5 -3.1 2.8 -2.3 0.4 0.3 0.8 1.2 0.8 2 0 1.7 -2.6 1.9 -3.6 0.3z"/>
  <path d="M5.4 169.9 c-0.8 -1.4 1.8 -3.1 3 -1.9 0.9 0.9 0 3 -1.4 3 -0.5 0 -1.2 -0.5 -1.6 -1.1z"/>
  <path d="M3.5 165 c-0.7 -1.1 0.2 -3 1.5 -3 0.4 0 1 0.6 1.3 1.4 0.6 1.6 -1.9 3 -2.8 1.6z"/>
 </g>
</svg>