<svg x="0" y="0" width="512" height="512" version="1.1"
    xmlns="http://www.w3.org/2000/svg"
    xmlns:xlink="http://www.w3.org/1999/xlink" viewBox="0 0 512 512">
    <title>qr code icon</title>
    <desc>qr code icon from the IconExperience.com G-Collection. Copyright by INCORS GmbH (www.incors.com).</desc>
    <g>
        <path d="M48,32l416,0l16,16l0,416c0,8.8 -7.2,16 -16,16l-416,0l-16,-16l0,-416z" fill="#ffffff"/>
        <path d="M40,472l432,-432l8,8l0,416c0,8.8 -7.2,16 -16,16l-416,0z" fill="#ebedef"/>
        <path d="M48,320l128,0c8.8,0 16,7.2 16,16l0,128c0,8.8 -7.2,16 -16,16l-128,0c-8.8,0 -16,-7.2 -16,-16l0,-128c0,-8.8 7.2,-16 16,-16z M224,32l32,0l0,32l32,0l0,96l-64,0l0,-32l32,0l0,-32l-32,0z M32,224l96,0l0,32l32,0l0,-32l32,0l0,32l64,0l0,-32l-32,0l0,-32l64,0l0,32l32,0l0,32l32,0l0,-32l64,0l0,32l32,0l0,-32l32,0l0,64l-64,0l0,64l32,0l0,-32l32,0l-0.2,64l-31.8,0l0,32l32,0l0,32l-32,0l0,32l-64,0l0,-64l-32,0l0,64l-32,0l0,-32l-32,0l0,32l-64,0l0,-32l32,0l0,-32l-32,0l0,-64l32,0l0,-32l-32,0l0,-32l-32,0l0,-32l-32,0l0,32l-64,0l0,-32l-32,0l0,32l-32,0z M352,256l0,32l32,0l0,-32z M320,288l-64,0l0,32l64,0z M256,416l32,0l0,-64l-32,0z M352,320l0,32l32,0l0,-32z M352,352l-32,0l0,63.95l32,0z M416,352l-32,0l0,32l32,0z M448,416l-32,0l0,32l32,0z M48,32l128,0c8.8,0 16,7.2 16,16l0,128c0,8.8 -7.2,16 -16,16l-128,0c-8.8,0 -16,-7.2 -16,-16l0,-128c0,-8.8 7.2,-16 16,-16z M80,80l64,0l0,64l-64,0z M64,64l0,96l96,0l0,-96z M336,32l128,0c8.8,0 16,7.2 16,16l0,128c0,8.8 -7.2,16 -16,16l-128,0c-8.8,0 -16,-7.2 -16,-16l0,-128c0,-8.8 7.2,-16 16,-16z M368,80l64,0l0,64l-64,0z M352,64l0,96l96,0l0,-96z M80,368l64,0l0,64l-64,0z M64,352l0,96l96,0l0,-96z" fill="#546e7a"/>
        <path d="M187.3,324.7c2.9,2.9 4.7,6.9 4.7,11.3l0,128c0,8.8 -7.2,16 -16,16l-128,0c-4.4,0 -8.4,-1.8 -11.3,-4.7l27.3,-27.3l96,0l0,-96z M80,432l64,-64l0,64z M224,288l32,-32l32,-32l32,0l0,32l32,0l0,-32l64,0l0,32l32,0l0,-32l32,0l0,64l-64,0l0,64l32,0l0,-32l32,0l-0.2,64l-31.8,0l0,32l32,0l0,32l-32,0l0,32l-64,0l0,-64l-32,0l0,64l-32,0l0,-32l-32,0l0,32l-64,0l0,-32l32,0l0,-32l-32,0l0,-64l32,0l0,-32l-32,0z M324.7,187.3l27.3,-27.3l96,0l0,-96l27.3,-27.3c2.9,2.9 4.7,6.9 4.7,11.3l0,128c0,8.8 -7.2,16 -16,16l-128,0c-4.4,0 -8.4,-1.8 -11.3,-4.7z M368,144l64,-64l0,64z M352,256l0,32l32,0l0,-32z M320,288l-64,0l0,32l64,0z M256,416l32,0l0,-64l-32,0z M352,320l0,32l32,0l0,-32z M352,352l-32,0l0,63.95l32,0z M416,352l-32,0l0,32l32,0z M448,416l-32,0l0,32l32,0z" fill="#445a64"/>
    </g>
</svg>